<?xml version="1.0" standalone="no"?>
<!DOCTYPE svg PUBLIC "-//W3C//DTD SVG 20010904//EN"
 "http://www.w3.org/TR/2001/REC-SVG-20010904/DTD/svg10.dtd">
<svg version="1.0" xmlns="http://www.w3.org/2000/svg"
 width="16.000000pt" height="16.000000pt" viewBox="0 0 16.000000 16.000000"
 preserveAspectRatio="xMidYMid meet">
<metadata>
Created by potrace 1.11, written by Peter Selinger 2001-2013
</metadata>
<g transform="translate(0.000000,16.000000) scale(0.002857,-0.002857)"
fill="#000000" stroke="none">
<path d="M2625 4170 c-26 -3 -35 -8 -27 -13 7 -5 10 -12 7 -17 -3 -5 9 -7 27
-5 18 2 50 4 72 4 31 1 36 4 27 14 -6 8 -7 18 -3 23 4 4 0 3 -9 -4 -9 -6 -19
-9 -22 -5 -4 3 -7 1 -7 -5 0 -7 -5 -12 -11 -12 -5 0 -8 4 -4 9 8 14 -6 17 -50
11z"/>
<path d="M2765 4171 c-7 -12 12 -24 24 -16 5 3 12 1 16 -5 4 -6 11 -8 16 -5 5
4 9 2 9 -4 0 -5 -12 -11 -27 -13 -14 -2 -28 -10 -30 -18 -4 -13 -3 -13 7 0 10
12 11 11 7 -8 -3 -12 -1 -20 4 -16 5 3 9 13 10 22 0 14 2 14 8 -2 4 -11 17
-21 29 -23 17 -2 22 2 23 20 l0 22 9 -22 c6 -15 18 -23 34 -23 13 0 31 -3 40
-6 12 -4 16 0 16 15 0 12 4 21 10 21 5 0 7 -7 4 -15 -3 -8 1 -24 9 -36 11 -15
13 -28 7 -44 -5 -13 -6 -26 -3 -29 4 -3 1 -6 -7 -6 -9 0 -10 -3 -1 -14 9 -10
8 -15 -3 -19 -8 -3 -20 -16 -26 -28 -7 -12 -8 -19 -2 -15 5 3 13 -1 16 -10 5
-12 2 -15 -9 -10 -9 3 -14 2 -10 -3 3 -5 -1 -12 -7 -14 -8 -3 -6 -6 5 -6 9 -1
17 -7 17 -13 1 -8 6 -6 14 5 7 9 11 29 8 43 -4 23 -2 25 14 17 26 -13 40 -11
61 9 45 43 97 82 112 86 9 1 25 4 36 6 11 2 22 4 25 6 25 11 252 -28 313 -54
21 -8 40 -22 43 -30 7 -18 -44 -105 -106 -180 -41 -49 -47 -62 -37 -74 10 -12
9 -14 -3 -10 -9 3 -25 -9 -40 -31 -43 -60 -45 -65 -16 -46 15 10 26 13 26 6 0
-6 -4 -11 -10 -11 -5 0 -10 -7 -10 -16 0 -14 3 -14 15 -4 26 22 27 5 1 -23
-15 -16 -20 -28 -13 -31 8 -3 8 -5 -1 -5 -7 -1 -11 -5 -7 -10 3 -6 39 23 81
64 130 127 279 205 390 205 76 0 232 -52 267 -88 15 -15 27 -37 27 -48 0 -13
-74 -94 -201 -222 -193 -193 -203 -202 -240 -202 -22 0 -39 -5 -39 -11 0 -5 5
-7 10 -4 6 3 10 -1 10 -9 0 -9 5 -16 11 -16 6 0 3 -7 -5 -16 -9 -8 -16 -20
-16 -25 0 -5 -11 -14 -25 -21 -13 -6 -22 -14 -20 -18 3 -5 -2 -11 -10 -14 -14
-5 -14 -8 1 -31 9 -14 12 -25 6 -25 -6 0 -14 5 -17 10 -3 6 -11 10 -17 10 -6
0 -2 -10 10 -23 12 -13 20 -26 17 -29 -4 -4 15 -3 46 1 3 1 14 9 25 19 61 54
124 102 134 102 6 0 35 24 64 53 40 40 78 65 152 99 120 56 125 57 205 63 71
4 126 -10 183 -49 20 -13 64 -41 99 -61 59 -34 107 -86 107 -114 0 -15 -91
-56 -142 -64 -21 -3 -89 -31 -151 -61 -121 -60 -142 -65 -173 -41 -27 20 -36
18 -29 -6 9 -28 -14 -51 -106 -106 -42 -25 -89 -57 -103 -70 -14 -13 -26 -21
-26 -17 0 4 -9 -1 -20 -11 -16 -14 -17 -20 -8 -27 10 -6 9 -8 -3 -8 -9 0 -19
-7 -23 -15 -3 -9 0 -15 9 -15 8 0 15 5 15 12 0 6 3 8 7 4 4 -4 8 -15 8 -23 0
-9 6 -18 13 -20 6 -3 12 2 12 11 0 9 8 16 18 16 14 0 15 -2 2 -10 -21 -13 -7
-12 27 2 15 6 31 12 36 13 4 2 10 4 15 5 4 1 10 2 15 1 4 0 7 3 7 7 0 5 14 7
30 4 17 -2 30 0 30 4 0 5 15 10 33 11 18 2 60 12 92 23 76 27 253 52 308 44
23 -3 74 -15 112 -27 60 -19 79 -31 132 -85 108 -108 97 -167 -33 -182 -98
-11 -293 -48 -404 -76 -52 -13 -103 -24 -113 -24 -10 0 -32 -7 -49 -16 -17 -9
-42 -18 -56 -20 -34 -7 -67 -30 -53 -39 6 -3 9 -10 7 -14 -3 -4 6 -15 20 -25
13 -11 24 -24 24 -31 0 -20 -40 -6 -41 14 0 12 -2 11 -9 -4 -14 -32 -12 -33
33 -28 23 3 78 6 122 8 44 1 126 6 181 10 108 8 273 -7 330 -30 43 -18 139
-95 153 -123 25 -52 17 -60 -61 -61 -93 0 -527 -26 -768 -46 -405 -33 -574
-51 -755 -81 -55 -9 -147 -17 -205 -17 -140 -2 -193 16 -255 85 -40 45 -45 55
-45 98 0 27 6 79 14 117 39 188 44 411 12 518 -3 11 -9 36 -14 55 -11 45 -117
275 -143 311 -15 22 -39 105 -39 139 0 4 11 24 25 44 22 33 23 37 7 32 -13 -5
-22 1 -30 16 -6 13 -11 17 -11 10 -1 -7 -6 -10 -11 -7 -6 3 -28 -4 -49 -16
-28 -15 -38 -27 -34 -38 5 -12 3 -13 -6 -5 -14 13 -51 7 -51 -8 0 -5 5 -6 10
-3 6 3 10 1 10 -4 0 -6 -18 -11 -39 -11 -32 0 -44 -6 -65 -31 -22 -26 -32 -60
-27 -91 0 -5 -4 -8 -11 -8 -6 0 -8 -3 -5 -7 4 -3 -2 -12 -13 -20 -11 -8 -20
-17 -20 -21 0 -4 39 -8 88 -8 118 -2 132 -5 132 -26 0 -9 4 -19 9 -23 19 -11
34 -116 22 -156 -7 -24 -8 -46 -2 -61 6 -16 5 -34 -4 -56 -17 -39 -8 -47 56
-43 40 2 50 -1 62 -21 19 -30 30 -156 18 -210 -6 -24 -17 -79 -27 -123 -24
-119 -60 -204 -107 -252 -38 -39 -91 -73 -115 -73 -17 0 -83 72 -94 104 l-11
29 -14 -29 c-10 -22 -12 -23 -9 -7 2 12 -2 27 -10 34 -11 9 -14 8 -15 -7 0
-18 -1 -18 -9 1 -6 15 -9 9 -10 -25 -4 -102 -3 -176 3 -195 3 -11 10 -35 16
-53 6 -19 15 -40 22 -48 6 -8 9 -14 6 -14 -11 0 24 -85 85 -207 34 -68 63
-121 66 -119 8 9 29 -19 25 -34 -3 -10 3 -16 16 -17 23 -2 26 9 11 38 -8 14
-7 19 2 19 7 0 21 20 32 45 26 64 49 67 134 17 37 -22 94 -52 127 -67 33 -14
73 -33 89 -41 21 -11 32 -12 42 -3 10 8 18 8 27 0 10 -8 17 -7 25 1 8 8 6 21
-9 49 -10 21 -19 46 -19 56 0 10 -9 37 -20 61 -18 40 -18 45 -3 83 19 49 61
69 142 69 98 0 521 -40 661 -62 74 -12 171 -23 214 -24 44 -2 102 -8 130 -13
34 -6 53 -6 57 1 4 7 8 6 11 -2 5 -16 91 -32 99 -18 4 7 10 5 15 -5 11 -18
115 -42 123 -28 4 5 20 12 36 16 l30 7 -30 -21 c-16 -11 -25 -21 -19 -21 5 0
14 4 20 9 5 5 20 12 34 16 22 7 23 6 12 -8 -12 -14 -11 -15 12 -4 14 7 21 13
16 15 -5 2 -8 9 -6 15 1 7 1 9 -1 5 -2 -4 -11 -4 -19 -1 -7 3 -11 9 -8 14 3 5
-4 10 -15 10 -23 2 -29 3 -51 11 -50 20 -80 26 -80 17 0 -15 -19 -10 -40 11
-12 12 -25 18 -30 15 -5 -3 -20 1 -32 9 -13 8 -48 17 -78 21 -82 11 -134 45
-115 75 10 16 173 21 330 11 88 -6 198 -11 245 -12 47 -1 92 -5 100 -9 8 -4
29 -10 45 -11 31 -4 68 -35 59 -50 -3 -5 0 -9 6 -9 7 0 10 7 7 15 -9 22 40 55
82 55 21 0 42 5 47 10 9 9 32 7 133 -16 14 -3 29 -8 34 -11 5 -3 13 1 18 8 6
10 9 10 9 2 0 -14 31 -6 42 11 10 15 10 94 0 100 -5 3 -10 31 -11 63 -3 78
-26 344 -35 393 -10 59 -19 99 -29 124 -6 16 -10 44 -9 62 2 17 -7 67 -19 110
-14 50 -20 95 -17 125 4 42 2 52 -19 71 -14 13 -51 77 -82 143 -119 246 -319
514 -442 590 -50 31 -79 53 -124 95 -135 127 -376 267 -635 367 -206 81 -340
114 -545 138 -16 2 -59 8 -95 14 -111 17 -280 23 -296 10 -10 -8 -14 -8 -14 0
0 13 -46 15 -55 2z"/>
<path d="M2433 4158 c-40 -5 -73 -14 -73 -18 0 -5 -11 -7 -25 -4 -14 2 -25 0
-25 -6 0 -6 -4 -8 -10 -5 -12 7 -230 -34 -246 -46 -6 -5 -14 -6 -17 -2 -4 3
-7 2 -7 -4 0 -6 -9 -9 -19 -6 -13 3 -24 -2 -33 -16 -7 -12 -16 -21 -21 -21 -4
0 -5 5 -2 10 16 26 -60 1 -256 -83 -146 -63 -319 -151 -346 -176 -13 -12 -23
-19 -23 -16 0 7 -71 -41 -160 -108 -113 -85 -308 -267 -387 -359 -236 -279
-398 -621 -467 -989 -16 -87 -20 -124 -32 -361 l-7 -136 129 4 c71 2 143 8
159 13 17 4 47 7 68 7 24 -1 37 3 37 11 0 17 19 17 26 -1 5 -14 28 -16 40 -3
10 10 26 9 20 -2 -3 -5 12 -8 33 -7 28 1 37 4 30 12 -7 8 -2 13 16 16 17 4 25
1 25 -9 0 -8 -4 -11 -10 -8 -5 3 -10 2 -10 -3 0 -5 16 -9 36 -9 35 1 36 2 15
18 -15 12 -17 19 -9 23 7 3 -6 4 -30 2 -26 -2 -41 1 -39 7 5 15 63 20 86 7 19
-9 20 -8 12 12 -9 24 -41 38 -41 18 0 -7 -6 -8 -18 -2 -9 5 -35 10 -57 11 -35
3 -38 1 -26 -13 15 -17 7 -19 -24 -6 -13 6 -15 9 -5 9 13 1 13 3 1 10 -8 5
-72 7 -142 4 -148 -6 -148 -6 -144 90 2 44 9 65 29 92 50 66 138 118 233 140
57 13 302 13 322 1 5 -4 12 -2 16 4 3 5 11 10 16 10 6 0 7 -5 3 -11 -4 -7 3
-10 17 -9 13 1 26 1 29 0 17 -9 98 -5 113 5 16 11 15 13 -13 18 -34 7 -42 30
-8 25 15 -2 24 3 26 14 2 13 -17 21 -104 41 -59 14 -113 23 -121 20 -8 -3 -18
-1 -22 4 -6 10 -90 26 -296 59 -63 10 -108 23 -123 35 -14 10 -33 19 -44 19
-67 0 0 168 104 260 69 60 159 90 272 92 98 1 178 -15 356 -74 52 -17 105 -32
118 -33 13 0 28 -7 33 -15 8 -11 9 -9 4 9 -6 19 -4 23 9 18 25 -10 19 7 -10
24 -21 13 -23 17 -10 22 9 4 16 2 16 -3 0 -9 46 -7 56 2 7 8 -296 159 -306
153 -5 -3 -10 -1 -12 4 -4 10 -211 101 -231 101 -8 0 -31 11 -51 25 -20 14
-41 25 -46 25 -5 0 -16 7 -25 16 -65 66 184 234 347 234 98 0 243 -56 379
-146 37 -24 69 -44 72 -44 3 0 18 -11 33 -25 15 -14 34 -23 41 -21 7 3 13 0
13 -6 0 -6 19 -28 42 -49 30 -26 46 -35 54 -28 8 7 14 6 19 -1 3 -5 0 -10 -7
-10 -8 0 -6 -5 5 -11 10 -6 21 -8 24 -5 4 3 1 6 -6 6 -7 0 -10 4 -7 9 3 5 -1
14 -9 21 -8 7 -15 9 -15 5 0 -4 -7 -2 -16 6 -10 8 -13 21 -9 37 5 19 3 23 -9
19 -9 -4 -16 -2 -16 2 0 5 -3 16 -6 25 -5 12 0 16 17 16 19 0 21 -2 9 -10 -8
-5 -11 -12 -7 -16 4 -4 12 -3 19 4 8 8 2 21 -22 51 -17 23 -41 48 -53 56 -12
8 -17 15 -12 15 5 0 -65 75 -155 168 -191 193 -213 219 -206 237 6 16 132 78
191 94 63 17 174 13 220 -8 22 -10 71 -41 108 -69 37 -29 70 -52 73 -52 3 0
13 -9 22 -20 17 -19 17 -19 35 5 10 14 14 25 8 25 -5 0 -8 8 -6 18 2 9 4 19 4
21 1 3 8 -4 16 -15 8 -10 15 -16 15 -12 0 9 -57 106 -76 128 -7 8 -28 43 -48
78 l-35 62 22 14 c12 8 60 24 107 36 47 12 92 25 100 28 23 8 130 8 130 0 0
-5 7 -8 17 -8 19 0 103 -47 103 -58 0 -4 14 -21 30 -39 17 -18 30 -37 30 -42
0 -6 5 -11 11 -11 5 0 8 -4 4 -9 -3 -5 0 -13 7 -17 7 -4 10 -4 6 0 -11 13 25
44 39 34 17 -14 9 73 -11 114 -20 40 -21 97 -1 104 8 4 12 10 9 15 -3 5 -1 9
5 9 5 0 11 -4 13 -10 2 -6 27 -6 67 0 36 5 68 7 73 4 4 -3 8 -1 8 5 0 5 18 8
40 7 23 -2 43 1 46 5 2 4 13 6 24 4 21 -4 36 10 21 19 -5 4 -13 1 -16 -4 -5
-8 -14 -5 -26 6 -17 15 -19 16 -14 2 7 -17 -4 -18 -39 -3 -11 5 -21 3 -26 -5
-6 -10 -9 -9 -12 1 -4 12 -8 12 -20 1 -9 -7 -19 -9 -21 -5 -3 5 -20 10 -38 11
-51 4 -48 12 5 12 40 0 47 3 44 18 -4 21 -51 24 -155 10z"/>
<path d="M3002 3878 c-15 -15 -15 -38 0 -38 6 0 8 3 5 7 -4 3 1 11 10 18 9 7
12 14 6 18 -5 3 -15 1 -21 -5z"/>
<path d="M2440 3818 c0 -9 5 -20 10 -23 13 -8 13 5 0 25 -8 13 -10 13 -10 -2z"/>
<path d="M1976 3572 c-3 -5 1 -15 9 -22 16 -14 20 -3 6 19 -5 8 -11 9 -15 3z"/>
<path d="M3350 3545 c-6 -8 -10 -20 -7 -27 3 -8 6 -6 6 5 1 10 5 16 10 12 5
-3 12 -1 15 4 10 16 -11 22 -24 6z"/>
<path d="M2641 3304 c0 -11 3 -14 6 -6 3 7 2 16 -1 19 -3 4 -6 -2 -5 -13z"/>
<path d="M1788 3111 c11 -7 11 -9 -2 -14 -10 -4 -13 -13 -9 -22 4 -12 8 -13
13 -5 5 8 9 8 13 -3 3 -8 18 -14 33 -14 26 0 27 0 9 13 -10 8 -16 14 -12 14 4
0 -1 9 -10 20 -10 11 -24 20 -33 20 -12 0 -12 -2 -2 -9z"/>
<path d="M3589 2943 c-12 -16 -12 -17 2 -6 9 7 20 9 24 5 5 -4 5 -1 1 6 -9 16
-11 15 -27 -5z"/>
<path d="M1472 2767 c-12 -14 -5 -57 9 -57 13 0 11 14 -3 29 -11 10 -9 15 6
27 11 8 15 14 9 14 -6 0 -15 -6 -21 -13z"/>
<path d="M1496 2748 c3 -4 13 -8 22 -8 13 0 14 -2 4 -9 -10 -6 -10 -10 3 -21
13 -11 15 -9 15 14 0 16 4 25 10 21 6 -3 10 -1 10 5 0 6 -15 10 -34 8 -19 -1
-32 -6 -30 -10z"/>
<path d="M1570 2730 c0 -6 7 -10 15 -10 8 0 15 2 15 4 0 2 -7 6 -15 10 -8 3
-15 1 -15 -4z"/>
<path d="M3815 2681 c-3 -5 0 -13 6 -17 7 -4 9 -3 5 4 -3 5 0 13 6 15 9 4 10
6 1 6 -6 1 -14 -3 -18 -8z"/>
<path d="M3870 2635 c0 -8 4 -15 10 -15 5 0 7 7 4 15 -4 8 -8 15 -10 15 -2 0
-4 -7 -4 -15z"/>
<path d="M1280 2310 c0 -5 5 -10 11 -10 5 0 7 5 4 10 -3 6 -8 10 -11 10 -2 0
-4 -4 -4 -10z"/>
<path d="M1250 2300 c0 -5 5 -10 10 -10 6 0 10 5 10 10 0 6 -4 10 -10 10 -5 0
-10 -4 -10 -10z"/>
<path d="M1310 2299 c0 -5 5 -7 10 -4 6 3 10 8 10 11 0 2 -4 4 -10 4 -5 0 -10
-5 -10 -11z"/>
<path d="M4037 2290 c19 -22 26 -21 17 4 -3 9 -12 16 -20 16 -11 0 -10 -4 3
-20z"/>
<path d="M1336 2266 c6 -15 39 -28 48 -18 3 3 -6 11 -20 19 -33 16 -35 16 -28
-1z"/>
<path d="M3825 2229 c-3 -5 1 -6 9 -3 9 3 16 1 16 -6 0 -6 5 -8 12 -4 7 5 9 0
6 -14 -6 -23 17 -39 28 -20 4 6 3 8 -3 5 -6 -4 -13 5 -16 21 -6 28 -40 42 -52
21z"/>
<path d="M3914 2188 c-3 -4 2 -8 10 -8 8 0 17 4 20 8 3 5 -2 9 -10 9 -8 0 -17
-4 -20 -9z"/>
<path d="M3820 2178 c0 -4 4 -8 9 -8 6 0 12 4 15 8 3 5 -1 9 -9 9 -8 0 -15 -4
-15 -9z"/>
<path d="M2295 2150 c-3 -5 -1 -10 4 -10 6 0 11 5 11 10 0 6 -2 10 -4 10 -3 0
-8 -4 -11 -10z"/>
<path d="M934 1903 c-1 -13 1 -21 5 -16 3 4 10 10 14 14 4 3 2 11 -5 17 -10 8
-13 5 -14 -15z"/>
<path d="M971 1909 c4 -9 6 -18 4 -21 -3 -3 2 -5 10 -5 8 0 12 4 9 9 -3 4 5 7
17 5 13 -2 25 -9 27 -15 2 -7 8 -10 13 -6 5 3 9 1 9 -5 0 -5 -8 -12 -17 -14
-10 -3 -2 -5 17 -6 30 -1 32 -3 17 -12 -10 -6 -25 -8 -33 -5 -8 3 -14 1 -14
-5 0 -6 16 -8 39 -5 25 2 42 0 45 -7 5 -9 8 -9 12 1 7 14 34 16 34 2 0 -5 3
-9 8 -8 13 2 57 -19 71 -35 18 -22 6 -51 -27 -67 -29 -14 -33 -15 -99 -25 -24
-3 -46 -11 -49 -17 -4 -6 -3 -8 4 -4 6 3 13 2 17 -4 3 -5 1 -10 -6 -10 -9 0
-9 -4 1 -15 6 -8 9 -19 5 -25 -11 -19 6 -10 27 13 15 17 18 18 14 5 -3 -10 -1
-18 4 -18 6 0 10 11 10 25 0 22 3 25 26 19 15 -4 36 -7 48 -8 11 -1 24 -5 27
-10 4 -4 23 0 44 10 31 15 42 15 71 5 36 -13 86 -11 264 13 63 8 150 18 193
22 69 6 77 9 78 28 0 11 3 15 6 9 6 -16 33 -17 33 -2 0 8 5 8 15 -1 12 -10 15
-10 15 2 0 7 -9 14 -20 15 -11 1 -20 -3 -20 -8 0 -6 -16 2 -36 18 -20 15 -31
29 -25 31 6 2 9 8 5 13 -3 5 4 9 16 9 17 0 20 -4 15 -20 -9 -27 3 -25 15 3 7
17 9 18 9 5 1 -20 21 -25 21 -6 0 9 3 9 12 0 7 -7 23 -12 37 -12 37 0 12 21
-30 25 -19 2 -35 4 -36 5 -2 2 -6 3 -10 5 -5 1 -23 9 -41 17 -19 8 -45 14 -58
12 -13 -1 -24 1 -24 5 0 4 -44 16 -97 25 -54 10 -115 22 -136 28 -52 12 -202
12 -227 -2 -15 -8 -26 -7 -46 6 -19 13 -49 17 -115 18 -52 1 -89 5 -89 11 0 6
-5 3 -10 -5 -5 -8 -10 -10 -10 -4 0 6 -21 10 -49 10 -42 -1 -48 -3 -40 -17z"/>
<path d="M960 1863 c0 -5 9 -18 19 -27 15 -14 21 -15 27 -4 4 7 4 10 -1 6 -4
-4 -16 2 -26 14 -11 11 -19 17 -19 11z"/>
<path d="M923 1835 c0 -8 4 -15 9 -15 4 0 8 7 8 15 0 8 -4 15 -8 15 -5 0 -9
-7 -9 -15z"/>
<path d="M1970 1726 c0 -9 30 -14 35 -6 4 6 -3 10 -14 10 -12 0 -21 -2 -21 -4z"/>
<path d="M1001 1652 c-1 -7 -5 -11 -9 -8 -4 2 -8 -7 -9 -22 0 -16 1 -20 4 -9
4 14 11 17 30 12 15 -3 22 -2 19 4 -4 5 2 12 11 15 10 3 6 4 -9 2 -15 -2 -29
2 -32 8 -3 7 -5 6 -5 -2z"/>
</g>
</svg>
