<?xml version="1.0" standalone="no"?>
<!DOCTYPE svg PUBLIC "-//W3C//DTD SVG 20010904//EN"
 "http://www.w3.org/TR/2001/REC-SVG-20010904/DTD/svg10.dtd">
<svg version="1.0" xmlns="http://www.w3.org/2000/svg"
 width="16.000000pt" height="16.000000pt" viewBox="0 0 16.000000 16.000000"
 preserveAspectRatio="xMidYMid meet">
<metadata>
Created by potrace 1.11, written by Peter Selinger 2001-2013
</metadata>
<g transform="translate(0.000000,16.000000) scale(0.002936,-0.002936)"
fill="#000000" stroke="none">
<path d="M2344 3412 c-59 -21 -79 -38 -98 -84 -23 -56 -4 -129 46 -184 19 -21
19 -21 -27 -38 -47 -19 -48 -20 -45 -76 3 -49 15 -67 49 -75 l29 -6 2 -97 c1
-53 3 -117 5 -142 7 -102 8 -220 2 -226 -4 -4 -25 -2 -48 5 -50 15 -64 6 -80
-51 -15 -56 2 -92 55 -118 76 -36 180 -20 221 34 39 53 47 115 61 461 2 76 6
140 7 141 1 1 23 -1 50 -6 67 -10 80 2 83 80 2 41 -3 74 -12 92 -16 30 -28 31
-114 8 -49 -14 -47 -14 -70 30 -40 78 -26 88 78 61 l73 -19 11 26 c17 45 21
145 6 164 -28 38 -198 49 -284 20z"/>
<path d="M4316 3415 c-55 -19 -80 -47 -78 -88 2 -41 18 -87 32 -88 20 -3 25
-4 38 -12 7 -5 10 -12 7 -17 -11 -18 -16 -557 -6 -597 30 -110 167 -124 265
-26 39 39 40 48 6 113 -18 35 -30 40 -76 25 -21 -6 -21 -5 -14 37 11 56 21
124 25 168 2 19 6 55 9 80 23 216 23 300 -1 347 -35 66 -118 90 -207 58z"/>
<path d="M370 3375 c-118 -21 -123 -26 -108 -115 9 -48 28 -70 63 -70 20 0 21
-4 21 -212 2 -360 6 -391 58 -435 27 -23 37 -25 89 -20 65 6 149 50 155 81 2
10 -4 38 -13 62 -15 39 -20 43 -53 46 -37 3 -50 21 -34 44 4 6 51 14 106 17
85 6 103 10 132 32 46 35 78 80 113 156 57 125 69 215 40 293 -43 115 -99 137
-339 135 -91 -1 -194 -7 -230 -14z m343 -210 c4 -8 5 -22 3 -32 -2 -10 -9 -57
-16 -105 -7 -49 -15 -88 -19 -89 -3 -1 -32 -2 -64 -3 l-57 -1 4 105 c2 58 5
113 5 123 1 14 11 17 70 17 51 0 70 -4 74 -15z"/>
<path d="M1186 3179 c-120 -30 -198 -151 -198 -309 0 -121 29 -203 95 -271 51
-52 100 -73 183 -75 64 -3 79 1 140 31 122 60 135 80 106 155 -18 48 -31 50
-107 24 -115 -39 -171 -29 -193 35 l-10 29 103 -5 c98 -5 106 -4 147 20 68 39
82 60 84 124 4 108 -35 186 -112 223 -51 25 -174 35 -238 19z m130 -198 c12
-1 27 -41 19 -49 -3 -3 -31 -7 -64 -9 -58 -5 -59 -4 -54 19 8 31 26 44 60 42
15 -1 33 -3 39 -3z"/>
<path d="M1731 3175 c-79 -22 -111 -44 -111 -77 0 -36 39 -138 55 -144 7 -3
32 0 56 6 46 13 127 15 159 5 15 -5 20 -15 20 -42 l0 -35 -37 8 c-73 15 -172
9 -200 -13 -66 -49 -89 -123 -66 -214 25 -102 75 -144 166 -144 70 0 117 26
138 76 12 31 29 30 29 -2 0 -33 53 -79 92 -79 54 1 127 41 160 88 13 20 14 29
5 56 -7 17 -19 42 -28 54 -14 20 -20 21 -44 12 -15 -6 -29 -9 -30 -8 -2 2 3
32 11 68 58 269 -24 397 -256 399 -36 0 -89 -6 -119 -14z m171 -416 c-5 -21
-54 -60 -71 -57 -9 2 -17 16 -19 31 -3 20 2 29 18 35 32 12 75 7 72 -9z"/>
<path d="M2887 3176 c-66 -18 -116 -62 -152 -131 -28 -55 -30 -65 -30 -174 0
-134 18 -197 73 -262 56 -65 102 -84 207 -84 81 0 95 3 143 29 97 54 144 147
145 286 0 133 -17 199 -68 266 -52 68 -205 102 -318 70z m153 -211 c16 -19 17
-198 1 -237 -9 -25 -16 -28 -55 -28 -51 0 -54 5 -63 96 -7 75 3 149 23 169 20
19 78 19 94 0z"/>
<path d="M3383 3175 c-50 -21 -75 -69 -68 -128 7 -55 21 -84 46 -90 20 -5 67
-141 99 -285 24 -112 28 -120 54 -134 24 -13 156 -21 172 -10 19 12 55 83 76
150 11 35 21 62 23 60 2 -1 6 -21 9 -42 24 -148 49 -176 160 -173 53 2 60 5
86 37 130 158 217 452 162 550 -27 49 -63 72 -119 77 -37 4 -60 0 -91 -16 -51
-26 -65 -50 -57 -99 9 -60 15 -72 40 -78 22 -5 24 -10 20 -55 -3 -28 -14 -91
-26 -142 -25 -104 -26 -103 -54 48 -11 64 -13 103 -7 130 17 77 -7 161 -54
192 -53 34 -165 22 -216 -24 -10 -9 -18 -29 -17 -47 0 -43 21 -101 37 -102 6
-1 17 -2 22 -3 15 -2 12 -66 -9 -168 -24 -116 -40 -147 -42 -83 -2 66 -6 111
-18 189 -33 213 -111 297 -228 246z"/>
<path d="M4877 2515 c-12 -12 -15 -31 -12 -85 4 -55 1 -70 -10 -70 -7 0 -17 5
-20 10 -13 22 -79 1 -110 -34 -32 -36 -38 -67 -38 -186 0 -72 31 -150 59 -150
8 0 13 -4 10 -9 -7 -11 36 -20 69 -14 13 3 27 15 31 26 6 19 8 19 23 -9 20
-36 38 -41 47 -12 3 12 6 130 6 264 0 228 -1 243 -20 264 -18 19 -21 20 -35 5z
m-26 -252 c25 -25 13 -116 -23 -165 -20 -28 -51 -37 -63 -18 -9 15 -13 130 -4
130 4 0 6 8 5 18 -5 29 15 50 46 48 15 -1 33 -7 39 -13z"/>
<path d="M3282 2512 c-10 -7 -13 -68 -14 -261 -2 -237 -1 -254 17 -267 21 -16
45 -3 45 25 1 15 2 15 13 0 33 -44 122 -27 151 30 31 59 41 184 20 239 -7 18
-12 33 -11 35 6 8 -34 48 -58 57 -31 12 -95 -3 -95 -22 0 -6 -3 -8 -7 -5 -3 4
-7 38 -8 77 -2 83 -19 113 -53 92z m168 -253 c15 -27 12 -106 -5 -139 -27 -52
-84 -46 -103 10 -31 87 68 205 108 129z"/>
<path d="M4993 2502 c-16 -10 -27 -72 -13 -72 6 0 9 -4 6 -9 -3 -5 5 -16 18
-24 46 -30 78 28 45 82 -19 31 -34 37 -56 23z"/>
<path d="M4182 2451 c-6 -16 -8 -32 -5 -35 3 -3 2 -17 -1 -32 -4 -14 -10 -24
-13 -21 -15 16 -43 -15 -43 -48 0 -29 4 -36 25 -41 25 -6 25 -7 25 -114 0
-104 11 -162 36 -187 16 -17 74 -26 74 -13 0 6 4 9 9 6 12 -8 38 15 55 48 11
21 12 35 4 57 -11 33 -37 39 -45 10 -2 -10 -15 -23 -28 -29 -19 -9 -24 -7 -32
11 -11 24 -11 92 -1 102 4 4 3 18 -2 31 -5 13 -6 24 -1 24 4 0 6 13 3 29 -4
27 -2 29 30 30 42 1 59 4 79 16 14 9 15 15 5 45 -10 32 -15 35 -51 36 -64 1
-67 2 -60 24 7 23 -20 80 -39 80 -8 0 -19 -13 -24 -29z"/>
<path d="M2900 2395 c-7 -9 -14 -46 -16 -84 -2 -37 -5 -80 -8 -96 -3 -15 -8
-48 -12 -72 -5 -32 -10 -41 -17 -34 -6 6 -12 18 -13 27 -2 9 -7 37 -13 63 -6
25 -12 62 -14 82 -5 39 -23 79 -36 79 -18 0 -30 -29 -56 -142 -24 -104 -40
-144 -43 -105 0 6 -3 23 -7 37 -3 14 -8 60 -10 103 -5 82 -17 117 -39 117 -27
0 -39 -45 -32 -126 4 -42 8 -80 10 -83 2 -3 7 -28 10 -56 10 -74 45 -139 77
-143 34 -4 53 25 69 103 7 33 15 56 17 50 2 -5 14 -39 26 -74 45 -131 86 -110
134 69 19 70 26 282 10 292 -17 11 -23 10 -37 -7z"/>
<path d="M5168 2383 c-42 -26 -67 -94 -69 -188 -2 -82 15 -138 56 -180 40 -43
76 -50 128 -24 55 28 85 95 82 185 -1 38 -5 84 -10 103 -8 35 -74 108 -97 108
-7 0 -25 2 -38 6 -15 4 -35 0 -52 -10z m102 -103 c52 -39 21 -201 -40 -208
-43 -4 -52 10 -55 91 -4 114 35 163 95 117z"/>
<path d="M3079 2382 c-42 -19 -72 -54 -86 -102 -16 -52 -1 -220 19 -220 5 0 7
-4 4 -9 -7 -10 49 -71 67 -72 31 -3 63 4 78 17 9 8 18 11 21 8 4 -3 9 4 13 15
3 12 10 21 15 21 23 0 35 86 15 117 -20 30 -33 29 -47 -4 -24 -56 -48 -83 -71
-79 -28 4 -25 12 25 61 54 53 78 116 65 167 -17 68 -66 102 -118 80z m47 -97
c4 -8 1 -22 -6 -30 -7 -8 -9 -15 -6 -15 4 0 -7 -13 -24 -30 -17 -16 -33 -30
-37 -30 -10 0 6 71 22 96 18 27 43 31 51 9z"/>
<path d="M3935 2383 c-79 -20 -108 -164 -45 -224 15 -15 45 -29 63 -29 21 1
64 -31 64 -47 0 -25 -25 -52 -45 -48 -9 2 -22 4 -28 4 -6 1 -17 15 -24 31 -16
38 -25 44 -48 29 -18 -11 -20 -46 -6 -89 3 -8 5 -16 4 -18 -2 -6 43 -42 54
-43 6 0 26 -2 45 -5 66 -8 114 46 114 130 0 59 -20 96 -63 117 -14 6 -33 15
-42 20 -10 5 -25 9 -33 9 -8 0 -15 3 -16 8 0 4 -2 15 -4 25 -5 27 21 46 56 42
43 -6 56 -19 62 -65 3 -22 12 -46 20 -54 13 -13 16 -13 30 2 15 18 16 69 3
130 -13 57 -89 92 -161 75z"/>
<path d="M4989 2363 c0 -5 -2 -78 -4 -163 -3 -160 4 -200 40 -200 24 0 29 22
33 150 4 180 4 181 -14 201 -17 19 -53 26 -55 12z"/>
<path d="M4418 2338 c-22 -34 -31 -91 -32 -204 -1 -82 3 -107 19 -137 11 -20
22 -37 25 -38 72 -10 94 -3 116 36 11 19 36 33 33 18 -6 -35 32 -73 55 -54 11
9 13 152 3 239 -2 17 1 32 6 32 4 0 6 4 3 9 -4 5 -8 31 -11 57 -3 26 -10 51
-17 55 -22 14 -48 -10 -49 -44 0 -18 -2 -41 -4 -52 -2 -11 -7 -36 -10 -55 -15
-80 -81 -181 -99 -151 -18 29 3 221 23 221 11 0 6 43 -8 69 -15 27 -35 27 -53
-1z"/>
<path d="M3579 2259 c-6 -11 -8 -32 -4 -47 l6 -27 103 -2 c101 -1 104 -1 115
23 21 47 2 60 -86 62 -43 1 -88 4 -100 6 -16 3 -26 -2 -34 -15z"/>
</g>
</svg>
